<?xml version="1.0" encoding="utf-8"?>
<!-- Generator: Adobe Illustrator 27.8.0, SVG Export Plug-In . SVG Version: 6.00 Build 0)  -->
<svg version="1.1" id="Calque_1" xmlns="http://www.w3.org/2000/svg" xmlns:xlink="http://www.w3.org/1999/xlink" x="0px" y="0px"
	 viewBox="0 0 385.9 358.3" style="enable-background:new 0 0 385.9 358.3;" xml:space="preserve">
<style type="text/css">
	.st0{fill:none;}
	.st1{fill:#383838;}
	.st2{fill:#283276;}
	.st3{fill:#FFFFFF;}
	.st4{fill:#F29FC5;}
	.st5{fill:#008ECF;}
	.st6{fill:#E1000F;}
	.st7{fill:#FFE000;}
	.st8{fill:#C2C2C2;}
	.st9{fill:#ADADAD;}
	.st10{fill:#6B6B6B;}
	.st11{fill:#E0E0E0;}
	.st12{fill:#262626;}
	.st13{fill:#656565;}
	.st14{fill:#7F7F7F;}
	.st15{fill:#262626;stroke:#000000;stroke-width:0.2157;stroke-miterlimit:10;}
	.st16{fill:#000091;}
	.st17{fill:#808080;}
</style>
<rect class="st0" width="385.9" height="358.3"/>
<g>
	<path class="st2" d="M290.5,193.9c0,10.1-8.2,18.4-18.4,18.4c-10.1,0-18.4-8.2-18.4-18.4c0-10.1,8.2-18.4,18.4-18.4
		C282.3,175.6,290.5,183.8,290.5,193.9"/>
	<path class="st4" d="M169.5,125.4c0,10.1-8.2,18.4-18.4,18.4c-10.1,0-18.4-8.2-18.4-18.4c0-10.1,8.2-18.4,18.4-18.4
		C161.3,107,169.5,115.2,169.5,125.4"/>
	<path class="st5" d="M255.8,173.8c0,10.1-8.2,18.4-18.4,18.4c-10.1,0-18.4-8.2-18.4-18.4c0-10.1,8.2-18.4,18.4-18.4
		C247.6,155.5,255.8,163.7,255.8,173.8"/>
	<path class="st4" d="M211.4,196c0,10.1-8.2,18.4-18.4,18.4c-10.1,0-18.4-8.2-18.4-18.4c0-10.1,8.2-18.4,18.4-18.4
		C203.2,177.7,211.4,185.9,211.4,196"/>
	<path class="st2" d="M211.4,239.3c0,10.1-8.2,18.4-18.4,18.4c-10.1,0-18.4-8.2-18.4-18.4c0-10.1,8.2-18.4,18.4-18.4
		C203.2,221,211.4,229.2,211.4,239.3"/>
	<path class="st2" d="M290.5,102.5c0,10.1-8.2,18.4-18.4,18.4c-10.1,0-18.4-8.2-18.4-18.4c0-10.1,8.2-18.4,18.4-18.4
		C282.3,84.2,290.5,92.4,290.5,102.5"/>
	<path class="st2" d="M255.8,125.4c0,10.1-8.2,18.4-18.4,18.4c-10.1,0-18.4-8.2-18.4-18.4c0-10.1,8.2-18.4,18.4-18.4
		C247.6,107,255.8,115.2,255.8,125.4"/>
	<path class="st2" d="M166.8,175.5c0,10.1-8.2,18.4-18.4,18.4c-10.1,0-18.4-8.2-18.4-18.4c0-10.1,8.2-18.4,18.4-18.4
		C158.6,157.1,166.8,165.3,166.8,175.5"/>
	<path class="st2" d="M131.8,98.5c2.2,9.9-4,19.7-13.9,21.9c-9.9,2.2-19.7-4.1-21.9-13.9c-2.2-9.9,4-19.7,13.9-21.9
		C119.8,82.4,129.6,88.6,131.8,98.5"/>
	<path class="st6" d="M130,138.2c-0.8,5.7-6.1,9.7-11.8,8.9c-5.7-0.8-9.7-6.1-8.9-11.8c0.8-5.7,6.1-9.7,11.8-8.9
		C126.8,127.2,130.8,132.5,130,138.2"/>
	<path class="st6" d="M235.3,213.9c-0.9,6.6-7,11.1-13.6,10.2c-6.6-0.9-11.1-7-10.2-13.6c0.9-6.6,7-11.1,13.6-10.2
		C231.6,201.2,236.2,207.3,235.3,213.9"/>
	<path class="st6" d="M270.9,137.8c-0.6,4-4.2,6.7-8.2,6.2c-4-0.6-6.7-4.2-6.2-8.2c0.6-4,4.2-6.7,8.2-6.2
		C268.7,130.2,271.4,133.8,270.9,137.8"/>
	<path class="st6" d="M199.4,103.7c-0.8,5.7-6.1,9.7-11.8,8.9c-5.7-0.8-9.7-6.1-8.9-11.8c0.8-5.7,6.1-9.7,11.8-8.9
		C196.2,92.7,200.2,98,199.4,103.7"/>
	<path class="st4" d="M229.4,90.1c-0.8,5.7-6.1,9.7-11.8,8.9c-5.7-0.8-9.7-6.1-8.9-11.8c0.8-5.7,6.1-9.7,11.8-8.9
		C226.3,79.1,230.2,84.4,229.4,90.1"/>
	<path class="st7" d="M161.5,205c-0.8,5.7-6.1,9.7-11.8,8.9c-5.7-0.8-9.7-6.1-8.9-11.8c0.8-5.7,6.1-9.7,11.8-8.9
		C158.3,194,162.3,199.3,161.5,205"/>
	<path class="st7" d="M264.2,158c-0.8,5.7-6.1,9.7-11.8,8.9c-5.7-0.8-9.7-6.1-8.9-11.8c0.8-5.7,6.1-9.7,11.8-8.9
		C261.1,147,265.1,152.3,264.2,158"/>
	<path class="st2" d="M252.3,206.6c3.1,4.9,1.6,11.3-3.3,14.4c-4.9,3.1-11.3,1.6-14.4-3.3c-3.1-4.9-1.6-11.3,3.3-14.4
		C242.8,200.3,249.2,201.7,252.3,206.6"/>
	<path class="st7" d="M172.5,83.9c-0.8,5.7-6.1,9.7-11.8,8.9c-5.7-0.8-9.7-6.1-8.9-11.8c0.8-5.7,6.1-9.7,11.8-8.9
		C169.3,72.9,173.3,78.2,172.5,83.9"/>
	<path class="st5" d="M212.3,57.8c0,10.6-8.6,19.3-19.3,19.3c-10.6,0-19.3-8.6-19.3-19.3c0-10.6,8.6-19.3,19.3-19.3
		C203.7,38.5,212.3,47.1,212.3,57.8"/>
	<path class="st5" d="M132.1,193.8c0,10.1-8.2,18.4-18.4,18.4s-18.4-8.2-18.4-18.4c0-10.1,8.2-18.4,18.4-18.4
		S132.1,183.7,132.1,193.8"/>
	<path class="st5" d="M222.6,144.4c0,17.7-14.3,32-32,32c-17.7,0-32-14.3-32-32c0-17.7,14.3-32,32-32
		C208.2,112.3,222.6,126.7,222.6,144.4"/>
</g>
<g>
	<polygon class="st2" points="38.5,285.3 57.7,285.3 57.7,290.1 44.1,290.1 44.1,299.9 55.8,299.9 55.8,304.6 44.1,304.6 
		44.1,319.8 38.5,319.8 	"/>
	<path class="st2" d="M62.3,295h5.1v2.8c1.7-1.9,3.9-3.3,6.9-3.3c0.8,0,1.5,0.1,2.2,0.3v5c-0.8-0.2-1.6-0.3-2.6-0.3
		c-3.2,0-5.2,1.7-6.5,3.8v16.6h-5.1V295z"/>
	<path class="st2" d="M79.5,313.4c0-3.7,2.9-6.5,8.2-7.3l8-1.3v-1.3c0-3.1-2.3-4.9-5.5-4.9c-2.7,0-4.8,1.2-6.3,3.3l-3.8-2.9
		c2.2-3,5.8-4.8,10.2-4.8c6.7,0,10.4,3.9,10.4,9.4v16.4h-5.1V317c-1.8,2.2-4.9,3.5-7.9,3.5C82.8,320.6,79.5,317.7,79.5,313.4
		 M88.7,316.4c3.1,0,5.5-1.5,7-3.8v-4.3l-6.7,1.1c-3.1,0.5-4.4,1.9-4.4,3.7C84.6,315.1,86.1,316.4,88.7,316.4"/>
	<path class="st2" d="M107.9,295h5.1v2.4c1.9-2,4.3-3.4,7.9-3.4c5.5,0,9.7,3.7,9.7,10.9v14.9h-5.1v-14.7c0-3.9-2.2-6.3-5.7-6.3
		c-3.4,0-5.4,2.1-6.7,4.3v16.8h-5.1V295z"/>
	<path class="st2" d="M156.5,312.7l4,3.1c-2.3,3.1-5.9,5-10.5,5c-8.3,0-13.6-6.2-13.6-13.4c0-7.2,5.2-13.4,13.6-13.4
		c4.5,0,8.2,2,10.5,5l-4,3.1c-1.4-1.9-3.6-3.3-6.5-3.3c-4.8,0-8.2,3.7-8.2,8.6c0,4.9,3.4,8.6,8.3,8.6
		C152.8,316,155.1,314.6,156.5,312.7"/>
	<path class="st2" d="M177.3,320.8c-8.6,0-13.7-6.2-13.7-13.4c0-7.4,4.7-13.4,12.6-13.4c6.8,0,11.3,4.7,11.3,11c0,1.1-0.1,2.3-0.3,3
		h-18.3c0.3,5.4,3.6,8.2,8.4,8.2c3,0,5.5-1.3,7-3.4l3.7,3C185.7,318.9,181.9,320.8,177.3,320.8 M169.1,304.2h13.4
		c-0.1-3.1-2.3-6-6.3-6C172.5,298.2,169.9,300.4,169.1,304.2"/>
	<polygon class="st2" points="198.8,285.3 226.7,285.3 226.7,290.5 215.6,290.5 215.6,319.8 209.9,319.8 209.9,290.5 198.8,290.5 	
		"/>
	<path class="st2" d="M229.1,295h5.1v2.8c1.7-1.9,3.9-3.3,6.9-3.3c0.8,0,1.5,0.1,2.2,0.3v5c-0.8-0.2-1.6-0.3-2.6-0.3
		c-3.2,0-5.2,1.7-6.5,3.8v16.6h-5.1V295z"/>
	<path class="st2" d="M246.3,313.4c0-3.7,2.9-6.5,8.2-7.3l8-1.3v-1.3c0-3.1-2.3-4.9-5.5-4.9c-2.7,0-4.8,1.2-6.3,3.3l-3.8-2.9
		c2.2-3,5.8-4.8,10.2-4.8c6.7,0,10.4,3.9,10.4,9.4v16.4h-5.1V317c-1.8,2.2-4.9,3.5-7.9,3.5C249.6,320.6,246.3,317.7,246.3,313.4
		 M255.5,316.4c3.1,0,5.5-1.5,7-3.8v-4.3l-6.7,1.1c-3.1,0.5-4.4,1.9-4.4,3.7C251.4,315.1,252.9,316.4,255.5,316.4"/>
	<polygon class="st2" points="277.1,295 284.4,314.3 291.6,295 297.1,295 287.7,319.8 281,319.8 271.6,295 	"/>
	<path class="st2" d="M299.8,313.4c0-3.7,2.9-6.5,8.2-7.3l8-1.3v-1.3c0-3.1-2.3-4.9-5.5-4.9c-2.7,0-4.8,1.2-6.3,3.3l-3.8-2.9
		c2.2-3,5.8-4.8,10.2-4.8c6.7,0,10.4,3.9,10.4,9.4v16.4H316V317c-1.8,2.2-4.9,3.5-7.9,3.5C303.1,320.6,299.8,317.7,299.8,313.4
		 M309,316.4c3.1,0,5.5-1.5,7-3.8v-4.3l-6.7,1.1c-3.1,0.5-4.4,1.9-4.4,3.7C304.9,315.1,306.4,316.4,309,316.4"/>
	<rect x="329" y="295" class="st2" width="5.1" height="24.8"/>
	<rect x="342.4" y="282.9" class="st2" width="5.1" height="37"/>
	<path class="st2" d="M328.5,287.4c0-1.6,1.4-3,3-3c1.6,0,3,1.4,3,3c0,1.6-1.4,3-3,3C329.9,290.4,328.5,289,328.5,287.4"/>
</g>
</svg>
